<?xml version="1.0" encoding="utf-8"?>
<!-- Generator: Adobe Illustrator 19.0.1, SVG Export Plug-In . SVG Version: 6.00 Build 0)  -->
<svg version="1.1" id="Calque_1" xmlns="http://www.w3.org/2000/svg" xmlns:xlink="http://www.w3.org/1999/xlink" x="0px" y="0px"
	 viewBox="0 0 58.1 102.9" style="enable-background:new 0 0 58.1 102.9;" xml:space="preserve">
<style type="text/css">
	.st0{fill:#FFFFFF;}
</style>
<g>
	<g id="g7362_2_" transform="translate(428.0269,191.3445)">
		<path id="path7364_2_" class="st0" d="M-399-159.9c-3.1,0-5.7-2.5-5.7-5.7c0-3.1,2.5-5.7,5.7-5.7c3.1,0,5.7,2.5,5.7,5.7
			C-393.3-162.5-395.9-159.9-399-159.9 M-399-191.4c-14.2,0-25.7,11.5-25.7,25.7c0,14.2,11.5,25.7,25.7,25.7
			c14.2,0,25.7-11.5,25.7-25.7C-373.3-179.8-384.8-191.4-399-191.4"/>
	</g>
	<g id="g7366_2_" transform="translate(431.0455,179.5372)">
		<path id="path7368_2_" class="st0" d="M-383.8-77l1-0.5c1-0.5,6.1-3.3,5.1-6.9c-0.8-2.7-4.2-3.8-4.2-3.8s-21.4-6.4-34.8-10.8
			c-13.8-4.5-14.2-14.3-14.3-16.1c-0.8-10.9,7.5-15.4,8.6-15.9l0.6-0.3l0.2,0.4l-0.5,0.2c-0.7,0.4-4.8,2.6-4.2,5.6
			c0.5,2.9,4.1,3.9,4.1,3.9s21.4,6.4,34.8,10.8c13.8,4.5,14.2,14.3,14.3,16.1c0.8,12-8.1,16.6-9.5,17.3l-1,0.5L-383.8-77z"/>
	</g>
</g>
</svg>
