<?xml version="1.0" encoding="utf-8"?>
<!-- Generator: Adobe Illustrator 19.0.1, SVG Export Plug-In . SVG Version: 6.00 Build 0)  -->
<svg version="1.1" id="Calque_1" xmlns="http://www.w3.org/2000/svg" xmlns:xlink="http://www.w3.org/1999/xlink" x="0px" y="0px"
	 viewBox="0 0 108.8 34.3" style="enable-background:new 0 0 108.8 34.3;" xml:space="preserve">
<style type="text/css">
	.st0{fill:#FFFFFF;}
</style>
<g>
	<g id="g7362_1_" transform="translate(428.0269,191.3445)">
		<path id="path7364_1_" class="st0" d="M-418.3-180.9c-1,0-1.9-0.8-1.9-1.9c0-1,0.8-1.9,1.9-1.9s1.9,0.8,1.9,1.9
			C-416.5-181.7-417.3-180.9-418.3-180.9 M-418.4-191.3c-4.7,0-8.6,3.8-8.6,8.6c0,4.7,3.8,8.6,8.6,8.6c4.7,0,8.6-3.8,8.6-8.6
			C-409.8-187.5-413.6-191.3-418.4-191.3"/>
	</g>
	<g id="g7366_1_" transform="translate(431.0455,179.5372)">
		<path id="path7368_1_" class="st0" d="M-415.3-145.4l0.3-0.2c0.3-0.2,2-1.1,1.7-2.3c-0.3-0.9-1.4-1.3-1.4-1.3s-7.1-2.1-11.6-3.6
			c-4.6-1.5-4.7-4.8-4.8-5.4c-0.3-3.6,2.5-5.1,2.9-5.3l0.2-0.1l0.1,0.1l-0.2,0.1c-0.2,0.1-1.6,0.9-1.4,1.9c0.2,1,1.4,1.3,1.4,1.3
			s7.1,2.1,11.6,3.6c4.6,1.5,4.7,4.8,4.8,5.4c0.3,4-2.7,5.5-3.2,5.8l-0.3,0.2L-415.3-145.4z"/>
	</g>
</g>
<g>
	<g id="g7370_1_" transform="translate(413.0009,177.73441)">
		<path id="path7372_1_" class="st0" d="M-370.2-161.9c-0.4-0.6-1.1-0.9-1.8-0.9c-0.6,0-1.2,0.2-1.6,0.6c-0.5,0.4-0.8,1.1-0.8,1.7
			c0,0.6,0.3,1.2,0.7,1.6c0.5,0.5,1.1,0.8,1.8,0.8c0.8,0,1.6-0.5,2-1.2h-2.9v-1.2h4.5v0.1c0,2-1.7,3.5-3.6,3.5c-2,0-3.7-1.5-3.7-3.6
			c0-2,1.7-3.6,3.6-3.6c1.4,0,2.8,0.8,3.3,2.1H-370.2z"/>
	</g>
	<g id="g7374_1_" transform="translate(417.5009,178.8027)">
		<path id="path7376_1_" class="st0" d="M-365.6-165.2c-2,0-3.6,1.6-3.6,3.6c0,2,1.6,3.6,3.6,3.6c2,0,3.6-1.6,3.6-3.6
			C-362.1-163.6-363.7-165.2-365.6-165.2 M-363.3-161.6c0,1.3-1,2.3-2.3,2.3c-1.3,0-2.3-1.1-2.3-2.3c0-1.3,1-2.4,2.3-2.3l0,0
			C-364.4-163.9-363.3-162.9-363.3-161.6"/>
	</g>
	<g id="g7378_1_" transform="translate(422.2182,177.4252)">
		<path id="path7380_1_" class="st0" d="M-360.9-161v-1.4h0.2c0.3,0,0.6,0,0.8,0.1c0.3,0.1,0.4,0.3,0.4,0.6c0,0.3-0.1,0.5-0.4,0.6
			c-0.2,0.1-0.6,0.1-0.9,0.1H-360.9z M-362.2-156.8h1.7c0.7,0,1.4-0.1,1.9-0.5c0.5-0.4,0.8-1,0.8-1.6c0-0.8-0.4-1.4-1.2-1.7
			c0.5-0.2,0.8-0.8,0.8-1.3c0-0.6-0.4-1.3-1-1.5c-0.6-0.3-1.2-0.3-1.8-0.3h-1.2V-156.8z M-360.9-158v-1.8h0.6c0.3,0,0.6,0,0.9,0.1
			c0.3,0.2,0.5,0.4,0.5,0.7c0,0.3-0.1,0.5-0.3,0.7c-0.3,0.2-0.7,0.2-1.1,0.2H-360.9z"/>
	</g>
	<g id="g7382_1_" transform="translate(426.3248,178.7382)">
		<path id="path7384_1_" class="st0" d="M-356.8-165h3.7v1.2h-2.4v1.6h2.3v1.2h-2.3v1.6h2.4v1.2h-3.7V-165z"/>
	</g>
	<g id="g7386_1_" transform="translate(430.85181,178.7382)">
		<path id="path7388_1_" class="st0" d="M-352.2-165h1.3v5.6h2.1v1.2h-3.4V-165z"/>
	</g>
	<path id="path7390_1_" class="st0" d="M86.8,13.8H88v6.9h-1.3V13.8z"/>
	<g id="g7392_1_" transform="translate(438.3618,178.7382)">
		<path id="path7394_1_" class="st0" d="M-344.6-165h1.4l2.9,5v-5h1.3v6.9h-1.4l-2.9-5v5h-1.3V-165z"/>
	</g>
	<g id="g7396_1_" transform="translate(444.31709,176.2829)">
		<path id="path7398_1_" class="st0" d="M-338.6-157.6c0,0.5,0.4,0.9,1,0.9c0.5,0,0.9-0.4,0.9-0.9c0-0.8-0.6-1-1.2-1.2
			c-0.5-0.1-0.8-0.3-1.2-0.6c-0.3-0.3-0.5-0.8-0.5-1.3c0-1.1,0.9-1.9,2-1.9c1.1,0,2,0.9,2,1.9h-1.3c0-0.4-0.4-0.7-0.8-0.7
			c-0.4,0-0.7,0.3-0.7,0.7c0,0.5,0.5,0.7,0.9,0.8c0.5,0.2,0.9,0.3,1.3,0.6c0.5,0.4,0.7,0.9,0.7,1.6c0,1.2-1,2.2-2.2,2.2
			c-1.2,0-2.2-0.9-2.2-2.1H-338.6z"/>
	</g>
</g>
</svg>
